<svg xmlns="http://www.w3.org/2000/svg" viewBox="0 0 200 56" fill="none" role="img" aria-labelledby="logoTitle">
  <title id="logoTitle">Scarrow — crop protection</title>
  <defs>
    <linearGradient id="lg" x1="100" y1="4" x2="100" y2="56" gradientUnits="userSpaceOnUse">
      <stop stop-color="#A5D6A7"/>
      <stop offset="0.45" stop-color="#43A047"/>
      <stop offset="1" stop-color="#1B5E20"/>
    </linearGradient>
    <linearGradient id="gold" x1="100" y1="10" x2="100" y2="30" gradientUnits="userSpaceOnUse">
      <stop stop-color="#FEF08A"/>
      <stop offset="0.5" stop-color="#EAB308"/>
      <stop offset="1" stop-color="#C5A028"/>
    </linearGradient>
    <linearGradient id="stalk" x1="100" y1="20" x2="100" y2="40" gradientUnits="userSpaceOnUse">
      <stop stop-color="#2E7D32"/>
      <stop offset="1" stop-color="#66BB6A"/>
    </linearGradient>
  </defs>
  <path
    d="M6 45.5c20 6 44-7 74-11 30-4 56 3 88-3 10-2 20 0 32 1.5"
    stroke="url(#lg)"
    stroke-width="4.5"
    stroke-linecap="round"
    fill="none"
    opacity="0.92"
  />
  <g fill="#388E3C">
    <ellipse cx="18" cy="48.5" rx="5.5" ry="3.5"/>
    <ellipse cx="28" cy="49" rx="4.5" ry="3"/>
    <circle cx="15" cy="47.5" r="1.2" fill="#1B5E20"/>
    <circle cx="25" cy="48" r="1" fill="#1B5E20"/>
  </g>
  <path
    fill="#388E3C"
    d="M170 37.5l12-4.5 5.5 4-10 6.5c-2 1.2-4.5 0.8-6-1l-3.5-3.5 2-1.5z"
  />
  <path
    fill="#fff"
    stroke="url(#lg)"
    stroke-width="2.8"
    d="M100 6.5L66 21V38.5C66 46 80 52.5 100 55.5C120 52.5 134 46 134 38.5V21L100 6.5z"
  />
  <g stroke="url(#stalk)" stroke-width="1.65" stroke-linecap="round" fill="none">
    <path d="M88 37.5V23"/>
    <path d="M94 37.5V21"/>
    <path d="M100 37.5V19"/>
    <path d="M106 37.5V21"/>
    <path d="M112 37.5V23"/>
  </g>
  <g fill="url(#gold)">
    <ellipse cx="88" cy="21.5" rx="1.35" ry="3.1" transform="rotate(-10 88 21.5)"/>
    <ellipse cx="94" cy="20" rx="1.25" ry="2.9" transform="rotate(-5 94 20)"/>
    <ellipse cx="100" cy="18" rx="1.35" ry="3.3"/>
    <ellipse cx="106" cy="20" rx="1.25" ry="2.9" transform="rotate(5 106 20)"/>
    <ellipse cx="112" cy="21.5" rx="1.35" ry="3.1" transform="rotate(10 112 21.5)"/>
  </g>
</svg>
